<?xml version="1.0" encoding="utf-8"?>
<!-- Generator: Adobe Illustrator 20.0.0, SVG Export Plug-In . SVG Version: 6.00 Build 0)  -->
<svg version="1.1" id="Layer_1" xmlns="http://www.w3.org/2000/svg" xmlns:xlink="http://www.w3.org/1999/xlink" x="0px" y="0px"
	 width="64px" height="64px" viewBox="0 0 64 64" style="enable-background:new 0 0 64 64;" xml:space="preserve">
<style type="text/css">
	.st0{fill:#56A3DA;}
</style>
<g id="XMLID_3_">
	<path id="XMLID_4_" class="st0" d="M64,32C64,14.3,49.7,0,32,0S0,14.3,0,32s14.3,32,32,32c5.2,0,10.1-1.2,14.5-3.5
		c1.9-0.9,2.5-3.2,1.6-5.1c-0.9-1.9-3.2-2.5-5.1-1.6c-3.3,1.7-7.1,2.7-11.1,2.7c-6.8,0-12.9-2.8-17.3-7.2C10.3,44.9,7.5,38.8,7.5,32
		s2.8-12.9,7.2-17.3S25.2,7.5,32,7.5s12.9,2.8,17.3,7.2s7.2,10.5,7.2,17.3c0,2.7-0.4,5.3-1.2,7.7l0,0l-0.1,0.4l0,0
		c-0.3,0.7-0.7,1.2-1.2,1.6c-0.5,0.4-1.2,0.5-1.9,0.5c-0.3,0-0.7,0-0.9-0.1c-0.7-0.3-1.2-0.7-1.6-1.2c-0.4-0.5-0.5-1.2-0.5-1.9
		c0-0.3,0-0.5,0.1-0.9c0.8-2,1.2-4.1,1.2-6.4c0-10.1-8.3-18.4-18.4-18.4s-18.4,8.3-18.4,18.4S21.9,50.1,32,50.1c0.8,0,1.5,0,2.3-0.1
		c2-0.3,3.5-2.1,3.2-4.1s-2.1-3.5-4.1-3.2l0,0c-0.4,0-0.9,0.1-1.3,0.1c-3.1,0-5.7-1.2-7.7-3.2s-3.2-4.7-3.2-7.7s1.2-5.7,3.2-7.7
		s4.7-3.2,7.7-3.2s5.7,1.2,7.7,3.2s3.2,4.7,3.2,7.7c0,1.3-0.3,2.7-0.7,3.9v0.1l0,0V36c-0.3,1.1-0.5,2.1-0.5,3.2c0,2.3,0.7,4.4,2,6.3
		c1.3,1.7,3.2,3.2,5.5,3.9c1.1,0.3,2.1,0.5,3.2,0.5c2.3,0,4.4-0.7,6.3-2c1.7-1.3,3.2-3.2,3.9-5.3l0,0l0.1-0.4l0,0
		C63.5,38.9,64,35.5,64,32z"/>
	<path id="XMLID_5_" class="st0" d="M35.9,28c0-2-1.6-3.6-3.6-3.6S28.7,26,28.7,28c0,1.3,0.7,2.4,1.7,3.1l-1.7,8.4h7.1L34,31.1
		C35.1,30.5,35.9,29.3,35.9,28z"/>
</g>
</svg>
