<?xml version="1.0" encoding="utf-8"?>
<!-- Generator: Adobe Illustrator 20.0.0, SVG Export Plug-In . SVG Version: 6.00 Build 0)  -->
<svg version="1.1" id="Слой_1" xmlns="http://www.w3.org/2000/svg" xmlns:xlink="http://www.w3.org/1999/xlink" x="0px" y="0px"
	 width="431.8px" height="500px" viewBox="0 0 431.8 500" style="enable-background:new 0 0 431.8 500;" xml:space="preserve" preserveAspectRatio="none">
<style type="text/css">
	.st0{fill:#FFFFFF;}
	.st1{fill:#5BA7DB;}
	.st2{fill:#8FC235;}
	.st3{fill:#E6E6E6;}
	.st4{fill:#F7F7F7;}
	.st5{fill:#F2F2F2;}
	.st6{fill:#D0D0CF;}
	.st7{fill:#040204;}
	.st8{clip-path:url(#SVGID_2_);fill:#282967;}
	.st9{clip-path:url(#SVGID_4_);fill:#FFFFFF;}
	.st10{clip-path:url(#SVGID_6_);fill:#EB202F;}
	.st11{clip-path:url(#SVGID_8_);fill:#EB202F;}
	.st12{clip-path:url(#SVGID_10_);fill:#EB202F;}
	.st13{clip-path:url(#SVGID_12_);fill:#EB202F;}
	.st14{clip-path:url(#SVGID_14_);fill:#EB202F;}
	.st15{clip-path:url(#SVGID_16_);fill:#FFFFFF;}
	.st16{clip-path:url(#SVGID_18_);fill:#EC1C24;}
	.st17{clip-path:url(#SVGID_20_);fill:#3A52A3;}
	.st18{clip-path:url(#SVGID_22_);fill:#010101;}
	.st19{clip-path:url(#SVGID_24_);fill:#EC2224;}
	.st20{clip-path:url(#SVGID_26_);fill:#FFCE00;}
	.st21{clip-path:url(#SVGID_28_);fill:#FCC20E;}
	.st22{clip-path:url(#SVGID_30_);fill:#C52127;}
	.st23{clip-path:url(#SVGID_32_);fill:#C52127;}
	.st24{clip-path:url(#SVGID_34_);fill:#C52127;}
	.st25{clip-path:url(#SVGID_36_);fill:#F9F9F9;}
	.st26{clip-path:url(#SVGID_38_);fill:#001689;}
	.st27{clip-path:url(#SVGID_40_);fill:#EC2224;}
	.st28{fill:#717373;}
	.st29{fill:#6B6B6B;}
	.st30{fill:#FDCC4F;}
	.st31{fill:#D24327;}
	.st32{fill:#8CC242;}
	.st33{fill:#C4C5C4;}
	.st34{fill:#3C86DF;}
	.st35{fill:#FCCB4E;}
	.st36{fill:#3490CD;}
	.st37{fill:none;}
	.st38{fill:#60A7DC;}
</style>
<path class="st0" d="M49.2,19.1H32.9c-1.6,0-2.9,1.3-2.9,2.9s1.3,2.9,2.9,2.9h16.3c1.6,0,2.9-1.3,2.9-2.9
	C52.1,20.4,50.8,19.1,49.2,19.1 M47.8,23.4c-0.7,0-1.3-0.6-1.3-1.3c0-0.7,0.6-1.3,1.3-1.3s1.3,0.6,1.3,1.3S48.5,23.4,47.8,23.4"/>
<path class="st0" d="M52.6,5.3c-0.3-2.2-2.2-3.9-4.5-3.9c-0.1,0-0.2,0-0.3,0c-1-0.9-2.2-1.4-3.5-1.4c-2.7,0-5,2.2-5,4.9
	c-1.2,0.9-1.9,2.4-1.9,3.9c0,2.8,2.2,5,5,5h8.2c2.5,0,4.5-2,4.5-4.5C55,7.6,54,6.1,52.6,5.3 M50.5,11.5h-8.2c-1.5,0-2.7-1.2-2.7-2.7
	c0-1,0.5-1.8,1.4-2.3l0.7-0.4l-0.1-0.8c0-0.1,0-0.2,0-0.3c0-1.5,1.2-2.7,2.7-2.7c0.8,0,1.6,0.4,2.1,1.1L46.9,4l0.7-0.2
	c0.2,0,0.3-0.1,0.5-0.1c1.2,0,2.2,1,2.2,2.2v1l0.9,0.3c0.9,0.3,1.6,1.1,1.6,2.1C52.7,10.6,51.7,11.5,50.5,11.5"/>
<path class="st0" d="M49.2,18c1,0,2,0.4,2.7,1.1l-1.4-4.3l0,0h-8.2c-3.2,0-5.8-2.6-5.9-5.7H36c-1.3,0-2.1,0.7-2.8,2.3l-3.1,7.8
	c0.7-0.7,1.7-1.2,2.8-1.2H49.2L49.2,18z"/>
<path class="st0" d="M69.5,6.3c-1.1,0-1.9,0.9-1.9,1.9v2.9h3.9V8.2C71.4,7.1,70.6,6.3,69.5,6.3"/>
<path class="st0" d="M69.5,0C62.6,0,57,5.6,57,12.5S62.6,25,69.5,25S82,19.4,82,12.5S76.4,0,69.5,0 M75.3,17.9
	c0,1.1-0.9,1.9-1.9,1.9h-7.7c-1.1,0-1.9-0.9-1.9-1.9V13c0-1.1,0.9-1.9,1.9-1.9V8.2c0-2.1,1.7-3.9,3.9-3.9c2.1,0,3.9,1.7,3.9,3.9v2.9
	c1.1,0,1.9,0.9,1.9,1.9L75.3,17.9L75.3,17.9z"/>
<path class="st0" d="M69.5,14c-0.5,0-1,0.4-1,1c0,0.4,0.2,0.7,0.5,0.8v1.6c0,0.3,0.2,0.5,0.5,0.5s0.5-0.2,0.5-0.5v-1.6
	c0.3-0.2,0.5-0.5,0.5-0.8C70.5,14.4,70,14,69.5,14"/>
<path class="st1" d="M96.5,0c-7,0.1-12.6,5.7-12.5,12.6C84,19.4,89.6,25,96.5,25h0.1c3.3,0,6.5-1.3,8.8-3.7s3.6-5.5,3.6-8.9
	C108.9,5.6,103.3,0,96.5,0 M92.7,16c0.3,0.3,0.3,0.8,0,1.1c-0.2,0.2-0.4,0.2-0.6,0.2s-0.4-0.1-0.6-0.3l-4.1-4.1
	c-0.3-0.3-0.3-0.8,0-1.1l4.1-4.1c0.3-0.3,0.8-0.3,1.1,0c0.3,0.3,0.3,0.8,0,1.1l-3.5,3.6L92.7,16z M98.7,6.6l-3.2,12.3
	c-0.1,0.4-0.4,0.6-0.8,0.6c-0.1,0-0.1,0-0.2,0c-0.4-0.1-0.7-0.6-0.6-1l3.2-12.3c0.1-0.4,0.6-0.7,1-0.6S98.8,6.1,98.7,6.6
	 M105.5,13.1l-4.1,4.1c-0.2,0.2-0.4,0.3-0.6,0.3s-0.4-0.1-0.6-0.2c-0.3-0.3-0.3-0.8,0-1.1l3.5-3.6L100.3,9c-0.3-0.3-0.3-0.8,0-1.1
	c0.3-0.3,0.8-0.3,1.1,0l4.1,4.1C105.8,12.3,105.8,12.8,105.5,13.1"/>
<path class="st1" d="M124.5,6.3c-1.1,0-1.9,0.9-1.9,1.9v2.9h3.9V8.2C126.4,7.1,125.6,6.3,124.5,6.3"/>
<path class="st1" d="M124.5,0C117.6,0,112,5.6,112,12.5S117.6,25,124.5,25c6.9,0,12.5-5.6,12.5-12.5S131.4,0,124.5,0 M130.3,17.9
	c0,1.1-0.9,1.9-1.9,1.9h-7.7c-1.1,0-1.9-0.9-1.9-1.9V13c0-1.1,0.9-1.9,1.9-1.9V8.2c0-2.1,1.7-3.9,3.9-3.9c2.1,0,3.9,1.7,3.9,3.9v2.9
	c1.1,0,1.9,0.9,1.9,1.9v4.9H130.3z"/>
<path class="st1" d="M124.5,14c-0.5,0-1,0.4-1,1c0,0.4,0.2,0.7,0.5,0.8v1.6c0,0.3,0.2,0.5,0.5,0.5s0.5-0.2,0.5-0.5v-1.6
	c0.3-0.2,0.5-0.5,0.5-0.8C125.5,14.4,125,14,124.5,14"/>
<path class="st2" d="M96.5,30c-7,0.1-12.6,5.7-12.5,12.6C84,49.4,89.6,55,96.5,55h0.1c3.3,0,6.5-1.3,8.8-3.7s3.6-5.5,3.6-8.9
	C108.9,35.6,103.3,30,96.5,30 M92.7,46c0.3,0.3,0.3,0.8,0,1.1c-0.2,0.2-0.4,0.2-0.6,0.2s-0.4-0.1-0.6-0.3l-4.1-4.1
	c-0.3-0.3-0.3-0.8,0-1.1l4.1-4.1c0.3-0.3,0.8-0.3,1.1,0c0.3,0.3,0.3,0.8,0,1.1l-3.5,3.6L92.7,46z M98.7,36.6l-3.2,12.3
	c-0.1,0.4-0.4,0.6-0.8,0.6c-0.1,0-0.1,0-0.2,0c-0.4-0.1-0.7-0.6-0.6-1l3.2-12.3c0.1-0.4,0.6-0.7,1-0.6S98.8,36.1,98.7,36.6
	 M105.5,43.1l-4.1,4.1c-0.2,0.2-0.4,0.3-0.6,0.3s-0.4-0.1-0.6-0.2c-0.3-0.3-0.3-0.8,0-1.1l3.5-3.6l-3.5-3.5c-0.3-0.3-0.3-0.8,0-1.1
	s0.8-0.3,1.1,0l4.1,4.1C105.8,42.3,105.8,42.8,105.5,43.1"/>
<path class="st2" d="M124.5,36.2c-1.1,0-1.9,0.9-1.9,1.9V41h3.9v-2.9C126.4,37.1,125.6,36.2,124.5,36.2"/>
<path class="st2" d="M124.5,30c-6.9,0-12.5,5.6-12.5,12.5S117.6,55,124.5,55c6.9,0,12.5-5.6,12.5-12.5S131.4,30,124.5,30
	 M130.3,47.9c0,1.1-0.9,1.9-1.9,1.9h-7.7c-1.1,0-1.9-0.9-1.9-1.9V43c0-1.1,0.9-1.9,1.9-1.9v-2.9c0-2.1,1.7-3.9,3.9-3.9
	c2.1,0,3.9,1.7,3.9,3.9v2.9c1.1,0,1.9,0.9,1.9,1.9v4.9H130.3z"/>
<path class="st2" d="M124.5,44c-0.5,0-1,0.4-1,1c0,0.4,0.2,0.7,0.5,0.8v1.6c0,0.3,0.2,0.5,0.5,0.5s0.5-0.2,0.5-0.5v-1.6
	c0.3-0.2,0.5-0.5,0.5-0.8C125.5,44.4,125,44,124.5,44"/>
<path class="st1" d="M153.5,0C146.6,0,141,5.6,141,12.5S146.6,25,153.5,25S166,19.4,166,12.5S160.4,0,153.5,0 M159.3,19
	c-0.6,0.6-1.5,1-2.4,1s-1.8-0.4-2.4-1l-6.6-6.6c-0.8-0.8-1.3-1.9-1.3-3.1s0.4-2.2,1.3-3.1c0.8-0.8,1.9-1.3,3.1-1.3
	c1.2,0,2.2,0.4,3.1,1.3l5,5c0.3,0.3,0.3,0.7,0,1s-0.7,0.3-1,0l-5-5c-0.6-0.6-1.3-0.9-2.1-0.9s-1.5,0.3-2.1,0.9S148,8.5,148,9.3
	c0,0.8,0.3,1.5,0.9,2.1l6.6,6.6c0.4,0.4,0.9,0.6,1.4,0.6s1-0.2,1.4-0.6s0.6-0.9,0.6-1.4s-0.2-1-0.6-1.4l-4.7-4.7
	c-0.4-0.4-1.1-0.4-1.5,0c-0.2,0.2-0.3,0.5-0.3,0.7c0,0.3,0.1,0.5,0.3,0.7l3.2,3.2c0.3,0.3,0.3,0.7,0,1c-0.3,0.3-0.7,0.3-1,0
	l-3.2-3.2c-0.5-0.5-0.7-1.1-0.7-1.7c0-0.7,0.3-1.3,0.7-1.7c1-1,2.5-1,3.5,0l4.7,4.7c0.6,0.6,1,1.5,1,2.4S160,18.3,159.3,19"/>
<path class="st2" d="M153.5,30c-6.9,0-12.5,5.6-12.5,12.5S146.6,55,153.5,55S166,49.4,166,42.5S160.4,30,153.5,30 M159.3,49
	c-0.6,0.6-1.5,1-2.4,1s-1.8-0.4-2.4-1l-6.6-6.6c-0.8-0.8-1.3-1.9-1.3-3.1c0-1.2,0.4-2.2,1.3-3.1c0.8-0.8,1.9-1.3,3.1-1.3
	s2.2,0.4,3.1,1.3l5,5c0.3,0.3,0.3,0.7,0,1s-0.7,0.3-1,0l-5-5c-0.6-0.6-1.3-0.9-2.1-0.9s-1.5,0.3-2.1,0.9c-0.6,0.6-0.9,1.3-0.9,2.1
	s0.3,1.5,0.9,2.1l6.6,6.6c0.4,0.4,0.9,0.6,1.4,0.6s1-0.2,1.4-0.6c0.4-0.4,0.6-0.9,0.6-1.4s-0.2-1-0.6-1.4l-4.7-4.7
	c-0.4-0.4-1.1-0.4-1.5,0c-0.2,0.2-0.3,0.5-0.3,0.7c0,0.3,0.1,0.5,0.3,0.7l3.2,3.2c0.3,0.3,0.3,0.7,0,1s-0.7,0.3-1,0l-3.2-3.2
	c-0.5-0.5-0.7-1.1-0.7-1.7s0.3-1.3,0.7-1.7c1-1,2.5-1,3.5,0l4.7,4.7c0.6,0.6,1,1.5,1,2.4S160,48.3,159.3,49"/>
<path class="st1" d="M190.9,3.7c-4.3-0.5-8-2.6-9.3-3.5c-0.4-0.2-0.8-0.2-1.2,0c-1.4,0.9-4.9,3-9.3,3.5c-0.5,0.1-1,0.6-1,1.2v6.3
	c0,0,0,10.3,11,13.7c11-3.4,11-13.7,11-13.7V5C192,4.3,191.6,3.8,190.9,3.7 M189.2,11.3c0,0.4-0.1,8.2-8.2,11.3
	c-8.2-3.1-8.2-11.2-8.2-11.3V5.8c3.6-0.6,6.6-2.2,8.2-3.2c1.6,1,4.7,2.6,8.2,3.2V11.3z"/>
<path class="st1" d="M181,20c-5.4-2.7-5.5-8.5-5.5-8.7V7.6c1.8-0.5,3.7-1.2,5.5-2.2c1.8,1,3.7,1.7,5.5,2.2v3.5
	C186.5,11.4,186.4,17.2,181,20"/>
<path class="st2" d="M190.9,33.7c-4.3-0.5-8-2.6-9.3-3.5c-0.4-0.2-0.8-0.2-1.2,0c-1.4,0.9-4.9,3-9.3,3.5c-0.6,0.1-1,0.6-1,1.2v6.4
	c0,0,0,10.3,11,13.7c11-3.4,11-13.7,11-13.7v-6.4C192,34.3,191.6,33.8,190.9,33.7 M189.2,41.3c0,0.4-0.1,8.2-8.2,11.3
	c-8.2-3.1-8.2-11.2-8.2-11.3v-5.5c3.6-0.6,6.6-2.2,8.2-3.2c1.6,1,4.7,2.6,8.2,3.2V41.3z"/>
<path class="st2" d="M181,50.1c-5.4-2.7-5.5-8.5-5.5-8.7v-3.6c1.8-0.5,3.7-1.3,5.5-2.3c1.8,1,3.7,1.8,5.5,2.3v3.5
	C186.5,41.4,186.3,47.3,181,50.1"/>
<path class="st1" d="M197.3,7.7c0.1,0,0.1,0,0.2,0c0.2-0.1,0.3-0.3,0.2-0.5c-0.3-0.6-0.3-1.2-0.3-1.7c0-2.5,2.1-4.6,4.7-4.6
	c2.6,0,4.7,2.1,4.7,4.6c0,0.6-0.1,1.2-0.3,1.7c-0.1,0.2,0,0.5,0.2,0.5c0.2,0.1,0.5,0,0.6-0.2c0.3-0.6,0.4-1.3,0.4-2
	c0-3-2.5-5.4-5.5-5.4s-5.5,2.4-5.5,5.4c0,0.6,0,1.3,0.4,2C197,7.6,197.1,7.7,197.3,7.7"/>
<path class="st1" d="M205.1,7.1c0.2,0.1,0.5,0,0.6-0.2c0.2-0.4,0.3-0.9,0.3-1.4c0-2.1-1.7-3.8-3.8-3.8s-3.8,1.7-3.8,3.8
	c0,0.4,0,0.9,0.2,1.4c0.1,0.2,0.2,0.3,0.4,0.3c0.1,0,0.1,0,0.2,0c0.2-0.1,0.3-0.3,0.2-0.5c-0.1-0.3-0.2-0.6-0.2-1.1
	c0-1.6,1.3-2.9,3-2.9c1.6,0,3,1.3,3,2.9c0,0.4-0.1,0.8-0.2,1.1C204.8,6.7,204.9,7,205.1,7.1"/>
<path class="st1" d="M211.1,11.3c-0.4,0-0.8,0.1-1.1,0.3v-0.1c0-1-0.9-1.9-1.9-1.9c-0.4,0-0.8,0.1-1.1,0.3V9.8c0-1-0.9-1.9-1.9-1.9
	c-0.4,0-0.8,0.1-1.1,0.3V5.4c0-1.1-0.9-1.9-1.9-1.9c-1.1,0-1.9,0.9-1.9,1.9v7.7c-0.9-1.3-2.7-1.9-4.1-1.4c-0.2,0.1-0.4,0.2-0.5,0.3
	c-0.6,0.4-0.6,0.9-0.6,1c0,0.2,0,0.3,0.5,0.9c0.7,0.8,2,2.4,2.9,3.9c0,0,0.4,0.7,1,1.4c0.1,0,0.1,0.1,0.2,0.1
	c0.2,0.2,1.2,0.9,1.7,1.3c0.5,0.3,0.8,0.5,1,0.7c0.2,0.1,0.2,0.4,0.1,0.6c-0.1,0.1-0.2,0.2-0.3,0.2s-0.2,0-0.3-0.1s-0.5-0.4-0.9-0.6
	c-0.1-0.1-0.2-0.1-0.3-0.2v0.6c0,2,1.6,3.3,3.9,3.3h3.8c1.8,0,3.2-1,3.5-2.5c0-0.2,0.1-0.3,0.1-0.4c-0.6,0.2-1.2,0.4-1.4,0.4h-0.1
	c-0.2,0-0.4-0.1-0.4-0.3c-0.1-0.2,0.1-0.5,0.3-0.5c0.8-0.2,1.7-0.5,2.2-0.8c0.3-0.5,0.5-1.3,0.5-2.2v-5.5
	C213,12.1,212.1,11.3,211.1,11.3"/>
<path class="st2" d="M197.3,37.7c0.1,0,0.1,0,0.2,0c0.2-0.1,0.3-0.3,0.2-0.5c-0.3-0.6-0.3-1.2-0.3-1.7c0-2.5,2.1-4.6,4.7-4.6
	c2.6,0,4.7,2.1,4.7,4.6c0,0.6-0.1,1.2-0.3,1.7c-0.1,0.2,0,0.5,0.2,0.5c0.2,0.1,0.5,0,0.6-0.2c0.3-0.6,0.4-1.3,0.4-2
	c0-3-2.5-5.4-5.5-5.4c-3.1,0-5.5,2.4-5.5,5.4c0,0.6,0,1.3,0.4,2C197,37.6,197.1,37.7,197.3,37.7"/>
<path class="st2" d="M205.1,37.1c0.2,0.1,0.5,0,0.6-0.2c0.2-0.4,0.3-0.9,0.3-1.4c0-2.1-1.7-3.8-3.8-3.8s-3.8,1.7-3.8,3.8
	c0,0.4,0,0.9,0.2,1.4c0.1,0.2,0.2,0.3,0.4,0.3c0.1,0,0.1,0,0.2,0c0.2-0.1,0.3-0.3,0.2-0.5c-0.1-0.3-0.2-0.6-0.2-1.1
	c0-1.6,1.3-2.9,3-2.9s3,1.3,3,2.9c0,0.4-0.1,0.8-0.2,1.1C204.8,36.7,204.9,37,205.1,37.1"/>
<path class="st2" d="M211.1,41.3c-0.4,0-0.8,0.1-1.1,0.3v-0.1c0-1-0.9-1.9-1.9-1.9c-0.4,0-0.8,0.1-1.1,0.3v-0.1c0-1-0.9-1.9-1.9-1.9
	c-0.4,0-0.8,0.1-1.1,0.3v-2.8c0-1.1-0.9-1.9-1.9-1.9s-1.9,0.9-1.9,1.9v7.7c-0.9-1.3-2.7-1.9-4.1-1.4c-0.2,0.1-0.4,0.2-0.5,0.3
	c-0.6,0.4-0.6,0.9-0.6,1c0,0.2,0,0.3,0.5,0.9c0.7,0.8,2,2.4,2.9,3.9c0,0,0.4,0.7,1,1.4c0.1,0,0.1,0.1,0.2,0.1
	c0.2,0.2,1.2,0.9,1.7,1.3c0.5,0.3,0.8,0.5,1,0.7c0.2,0.1,0.2,0.4,0.1,0.6c-0.1,0.1-0.2,0.2-0.3,0.2s-0.2,0-0.3-0.1s-0.5-0.4-0.9-0.6
	c-0.1-0.1-0.2-0.1-0.3-0.2v0.6c0,2,1.6,3.3,3.9,3.3h3.8c1.8,0,3.2-1,3.5-2.5c0-0.2,0.1-0.3,0.1-0.4c-0.6,0.2-1.2,0.4-1.4,0.4h-0.1
	c-0.2,0-0.4-0.1-0.4-0.3c-0.1-0.2,0.1-0.5,0.3-0.5c0.8-0.2,1.7-0.5,2.2-0.8c0.2-0.5,0.5-1.3,0.5-2.2v-5.5
	C213,42.1,212.1,41.3,211.1,41.3"/>
<path class="st1" d="M240.1,9.5l-0.9-5l-2,1.7C235.9,4.8,234,4,231.9,4c-4.6,0-8.2,3.8-8.2,8.4c0,0,0,0,0,0.1c0-1.1,0.3-2.2,1-3.2
	c1.8-2.5,5.2-3.1,7.7-1.3c0.5,0.4,0.9,0.8,1.3,1.3l-2.1,1.7l4.7,1.8l4.7,1.8L240.1,9.5z"/>
<path class="st1" d="M238.8,17.7c0,0-0.4-0.3-0.7-0.5s0-0.9,0-0.9l0,0c0.2-0.6,0.4-1.1,0.5-1.7l-4.8-1.8c0,1-0.4,2.1-1,3
	c-1.8,2.5-5.2,3.1-7.7,1.3c-1.5-1.1-2.3-2.8-2.3-4.6l0,0c0,0,0,0,0-0.1c0-5.1,4.1-9.3,9.1-9.3c1.6,0,3.1,0.4,4.5,1.2
	c0.1-0.1,0.1-0.2,0.1-0.2c0.2-0.3,0.1-0.8-0.2-1l-2-1.5c-0.3-0.2-0.8-0.2-1,0.2c0,0-0.3,0.4-0.5,0.7s-0.9,0-0.9,0l0,0
	c-0.9-0.3-1.8-0.6-2.7-0.6l0,0c0,0-0.8-0.1-0.8-0.4c-0.1-0.3-0.1-0.9-0.1-0.9c-0.1-0.4-0.4-0.6-0.8-0.6L225,0.5
	c-0.4,0.1-0.6,0.4-0.6,0.8c0,0,0.1,0.5,0.1,0.9c0.1,0.3-0.6,0.7-0.6,0.7l0,0c-0.8,0.4-1.6,0.9-2.4,1.5l0,0c0,0-0.6,0.5-0.9,0.3
	c-0.3-0.2-0.7-0.5-0.7-0.5c-0.3-0.2-0.8-0.2-1,0.2l-1.4,2c-0.2,0.3-0.1,0.8,0.2,1c0,0,0.4,0.3,0.7,0.5s0,0.9,0,0.9l0,0
	c-0.3,0.9-0.5,1.8-0.6,2.8l0,0c0,0-0.1,0.8-0.4,0.8c-0.3,0.1-0.8,0.1-0.8,0.1c-0.4,0.1-0.6,0.4-0.6,0.8l0.4,2.5
	c0.1,0.4,0.4,0.7,0.8,0.6c0,0,0.5-0.1,0.8-0.1c0.3-0.1,0.6,0.7,0.6,0.7l0,0c0.4,0.9,0.9,1.7,1.5,2.4l0,0c0,0,0.5,0.6,0.3,0.9
	s-0.5,0.7-0.5,0.7c-0.2,0.3-0.2,0.8,0.2,1l2,1.5c0.3,0.2,0.8,0.2,1-0.2c0,0,0.3-0.4,0.5-0.7c0.2-0.3,0.9,0,0.9,0l0,0
	c0.9,0.3,1.8,0.6,2.7,0.6l0,0c0,0,0.8,0.1,0.8,0.4c0.1,0.3,0.1,0.9,0.1,0.9c0.1,0.4,0.4,0.6,0.8,0.6l2.4-0.4
	c0.4-0.1,0.6-0.4,0.6-0.8c0,0-0.1-0.5-0.1-0.9c-0.1-0.3,0.6-0.7,0.6-0.7l0,0c0.8-0.4,1.6-0.9,2.4-1.5l0,0c0,0,0.6-0.5,0.9-0.3
	c0.3,0.2,0.7,0.5,0.7,0.5c0.3,0.2,0.8,0.2,1-0.2l1.4-2C239.1,18.4,239.1,17.9,238.8,17.7"/>
<path class="st2" d="M240.1,39.4l-0.9-5l-2,1.7c-1.5-1.3-3.3-2.1-5.4-2.1c-4.6,0-8.2,3.8-8.2,8.4c0,0,0,0,0,0.1c0-1.1,0.3-2.2,1-3.2
	c1.8-2.5,5.2-3.1,7.7-1.3c0.5,0.4,0.9,0.8,1.3,1.3l-2.1,1.7l4.7,1.8l4.7,1.8L240.1,39.4z"/>
<path class="st2" d="M238.8,47.7c0,0-0.4-0.3-0.7-0.5s0-0.9,0-0.9l0,0c0.2-0.6,0.4-1.1,0.5-1.7l-4.8-1.8c0,1-0.4,2.1-1,3
	c-1.8,2.5-5.2,3.1-7.7,1.3c-1.5-1.1-2.3-2.8-2.3-4.6l0,0c0,0,0,0,0-0.1c0-5.1,4.1-9.3,9.1-9.3c1.6,0,3.1,0.4,4.5,1.2
	c0.1-0.1,0.1-0.2,0.1-0.2c0.2-0.3,0.2-0.8-0.2-1l-2-1.5c-0.3-0.2-0.8-0.2-1,0.2c0,0-0.3,0.4-0.5,0.7s-0.9,0-0.9,0l0,0
	c-0.9-0.3-1.8-0.6-2.7-0.6l0,0c0,0-0.8-0.1-0.8-0.4c-0.1-0.3-0.1-0.9-0.1-0.9c-0.1-0.4-0.4-0.6-0.8-0.6l-2.4,0.4
	c-0.4,0.1-0.6,0.4-0.6,0.8c0,0,0.1,0.5,0.1,0.9c0.1,0.3-0.6,0.7-0.6,0.7l0,0c-0.9,0.4-1.6,0.9-2.4,1.5l0,0c0,0-0.6,0.5-0.9,0.3
	c-0.3-0.2-0.7-0.5-0.7-0.5c-0.3-0.2-0.8-0.2-1,0.2l-1.4,2c-0.2,0.3-0.1,0.8,0.2,1c0,0,0.4,0.3,0.7,0.5s0,0.9,0,0.9l0,0
	c-0.3,0.9-0.5,1.8-0.6,2.8l0,0c0,0-0.1,0.8-0.4,0.8c-0.3,0.1-0.8,0.1-0.8,0.1c-0.4,0.1-0.6,0.4-0.6,0.8l0.4,2.5
	c0.1,0.4,0.4,0.7,0.8,0.6c0,0,0.5-0.1,0.8-0.1c0.3-0.1,0.6,0.7,0.6,0.7l0,0c0.4,0.9,0.9,1.7,1.5,2.4l0,0c0,0,0.5,0.6,0.3,0.9
	c-0.2,0.3-0.5,0.7-0.5,0.7c-0.2,0.3-0.2,0.8,0.2,1l2,1.5c0.3,0.2,0.8,0.2,1-0.2c0,0,0.3-0.4,0.5-0.7s0.9,0,0.9,0l0,0
	c0.9,0.3,1.8,0.6,2.7,0.6l0,0c0,0,0.8,0.1,0.8,0.4c0.1,0.3,0.1,0.9,0.1,0.9c0.1,0.4,0.4,0.7,0.8,0.6l2.4-0.4
	c0.4-0.1,0.6-0.4,0.6-0.8c0,0-0.1-0.5-0.1-0.9c-0.1-0.3,0.6-0.7,0.6-0.7l0,0c0.8-0.4,1.6-0.9,2.4-1.5l0,0c0,0,0.6-0.5,0.9-0.3
	c0.3,0.2,0.7,0.5,0.7,0.5c0.3,0.2,0.8,0.2,1-0.2l1.4-2C239.1,48.4,239.1,47.9,238.8,47.7"/>
<path class="st1" d="M268.3,12.5c-0.7-0.8-0.9-1.9-0.4-2.9c0.4-0.7,0.4-1.5,0.1-2.2s-0.9-1.2-1.7-1.4c-1-0.2-1.8-1.1-1.9-2.2
	c-0.1-0.8-0.5-1.4-1.1-1.9c-0.6-0.4-1.4-0.5-2.1-0.2c-1,0.4-2.1,0-2.8-0.8c-0.5-0.6-1.2-1-1.9-1c-0.8,0-1.5,0.4-1.9,1
	c-0.6,0.8-1.8,1.2-2.8,0.8c-0.7-0.3-1.5-0.2-2.1,0.2s-1,1.1-1.1,1.9c-0.1,1.1-0.8,1.9-1.9,2.2c-0.7,0.2-1.4,0.7-1.7,1.4
	s-0.3,1.5,0.1,2.2c0.5,0.9,0.3,2.1-0.4,2.9c-0.5,0.5-0.8,1.3-0.7,2.1s0.6,1.4,1.2,1.8c0.9,0.5,1.4,1.6,1.2,2.6
	c-0.2,0.7,0,1.5,0.5,2.1s1.2,0.9,2,0.8c1.1-0.1,2,0.6,2.4,1.6c0.3,0.7,0.9,1.3,1.6,1.5c0.7,0.2,1.5,0.1,2.1-0.4c0.9-0.6,2-0.6,2.9,0
	c0.6,0.5,1.4,0.6,2.1,0.4s1.3-0.8,1.6-1.5c0.4-1,1.4-1.6,2.4-1.6c0.8,0,1.5-0.3,2-0.8c0.5-0.6,0.7-1.4,0.5-2.1
	c-0.2-1,0.3-2.1,1.2-2.6c0.7-0.4,1.1-1,1.2-1.8C269.1,13.8,268.8,13,268.3,12.5 M254.4,18.6l-5.3-5.4l2.3-2.3l3.1,3.1l7-7.1l2.3,2.3
	L254.4,18.6z"/>
<path class="st2" d="M268.3,42.5c-0.7-0.8-0.9-1.9-0.4-2.9c0.4-0.7,0.4-1.5,0.1-2.2s-0.9-1.2-1.7-1.4c-1-0.2-1.8-1.1-1.9-2.2
	c-0.1-0.8-0.5-1.4-1.1-1.9c-0.6-0.4-1.4-0.5-2.1-0.2c-1,0.4-2.1,0-2.8-0.8c-0.5-0.6-1.2-1-1.9-1c-0.8,0-1.5,0.4-1.9,1
	c-0.6,0.9-1.8,1.2-2.7,0.8c-0.7-0.3-1.5-0.2-2.1,0.2c-0.6,0.4-1,1.1-1.1,1.9c-0.1,1.1-0.8,2-1.9,2.2c-0.7,0.2-1.4,0.7-1.7,1.4
	s-0.3,1.5,0.1,2.2c0.5,0.9,0.3,2.1-0.4,2.9c-0.5,0.5-0.8,1.3-0.7,2.1s0.6,1.4,1.2,1.8c0.9,0.5,1.4,1.6,1.2,2.6
	c-0.2,0.7,0,1.5,0.5,2.1s1.2,0.9,2,0.8c1.1-0.1,2,0.6,2.4,1.6c0.3,0.7,0.9,1.3,1.6,1.5s1.5,0.1,2.1-0.4c0.9-0.6,2-0.6,2.9,0
	c0.6,0.5,1.4,0.6,2.1,0.4c0.7-0.2,1.3-0.8,1.6-1.5c0.4-1,1.4-1.6,2.4-1.6c0.8,0,1.5-0.3,2-0.8c0.5-0.6,0.7-1.4,0.5-2.1
	c-0.2-1,0.3-2.1,1.2-2.6c0.7-0.4,1.1-1,1.2-1.8C269,43.8,268.8,43,268.3,42.5 M254.4,48.7l-5.3-5.4l2.3-2.3l3,3.1l7-7.1l2.3,2.3
	L254.4,48.7z"/>
<path class="st1" d="M285.8,11.7c0.4,0,0.7,0.1,1,0.2l4.7-1.5l-3.6,3.4c0,1.1-0.9,2.1-2.1,2.1c-1.1,0-2.1-0.9-2.1-2.1
	C283.7,12.6,284.6,11.7,285.8,11.7"/>
<path class="st1" d="M276.1,4c2.6-2.6,6.2-4,9.9-4c3.7,0,7.2,1.4,9.9,4c2.6,2.6,4.1,6,4.1,9.7c0,2.4-0.6,4.8-1.8,6.8
	c-0.2,0.3-0.4,0.6-0.6,0.9l2.2,1.6l-6.4,0.9l-0.9-6.3l2.1,1.6c0.1-0.2,0.2-0.4,0.3-0.6c0.9-1.5,1.3-3.2,1.3-5c0-1.4-0.3-2.8-0.8-4
	l-2.3,1.3l-1.2-2l2.3-1.3c-1.6-2.2-4.1-3.6-7-4v2.6h-2.4V3.7c-2.9,0.3-5.4,1.8-7,4L280,9l-1.2,2l-2.3-1.3c-0.5,1.2-0.8,2.6-0.8,4
	s0.3,2.7,0.8,4l2.3-1.3l1.2,2l-2.3,1.3c0.4,0.5,0.8,0.9,1.2,1.3l1.4,1.3l-2.6,2.7l-1.4-1.3c-1-0.9-1.8-2-2.5-3.1
	c-1.2-2.1-1.9-4.5-1.9-6.9C272,10.1,273.4,6.6,276.1,4"/>
<path class="st1" d="M328,15.2c0,5.4-4.4,9.8-9.8,9.8h-5.5c-5.4,0-9.8-4.4-9.8-9.8V9.8c0-5.4,4.4-9.8,9.8-9.8h5.5
	c5.4,0,9.8,4.4,9.8,9.8V15.2z"/>
<path class="st0" d="M323.2,13.1l-1.2,1.2h-7.4c-0.6,1.1-1.8,1.8-3.2,1.8c-2,0-3.7-1.6-3.7-3.7c0-2,1.6-3.7,3.7-3.7
	c1.4,0,2.6,0.8,3.2,1.9h2.2l1.1,1.6l1-1h0.3l1,1l1.5-1h0.2l1.3,1.2C323.3,12.7,323.4,12.9,323.2,13.1 M310,13.8
	c0.7,0,1.3-0.6,1.3-1.3s-0.6-1.3-1.3-1.3c-0.7,0-1.3,0.6-1.3,1.3S309.3,13.8,310,13.8"/>
<path class="st2" d="M328,45.2c0,5.4-4.4,9.8-9.8,9.8h-5.5c-5.4,0-9.8-4.4-9.8-9.8v-5.5c0-5.4,4.4-9.8,9.8-9.8h5.5
	c5.4,0,9.8,4.4,9.8,9.8V45.2z"/>
<path class="st0" d="M323.2,43.1l-1.2,1.2h-7.4c-0.6,1.1-1.8,1.8-3.2,1.8c-2,0-3.7-1.6-3.7-3.7c0-2,1.6-3.7,3.7-3.7
	c1.4,0,2.6,0.8,3.2,1.9h2.2l1.1,1.6l1-1h0.3l1,1l1.5-1h0.2l1.3,1.2C323.3,42.7,323.4,42.9,323.2,43.1 M310,43.8
	c0.7,0,1.3-0.6,1.3-1.3s-0.6-1.3-1.3-1.3c-0.7,0-1.3,0.6-1.3,1.3S309.3,43.8,310,43.8"/>
<path class="st1" d="M343.5,0C336.6,0,331,5.6,331,12.5S336.6,25,343.5,25S356,19.4,356,12.5S350.4,0,343.5,0"/>
<path class="st0" d="M339,6.3h8.9c0.2,0,0.4,0.2,0.4,0.4v2.7c0,0.2-0.2,0.4-0.4,0.4H339c-0.2,0-0.4-0.2-0.4-0.4V6.7
	C338.6,6.4,338.8,6.3,339,6.3 M339.5,8.9h8V7.1h-8V8.9z M339,10.7h8.9c0.2,0,0.4,0.2,0.4,0.4v2.7c0,0.2-0.2,0.4-0.4,0.4H339
	c-0.2,0-0.4-0.2-0.4-0.4v-2.7C338.6,10.9,338.8,10.7,339,10.7 M339.5,13.4h8v-1.8h-8V13.4z M339,15.2h8.9c0.2,0,0.4,0.2,0.4,0.4v2.7
	c0,0.2-0.2,0.4-0.4,0.4H339c-0.2,0-0.4-0.2-0.4-0.4v-2.7C338.6,15.4,338.8,15.2,339,15.2 M339.5,17.9h8v-1.8h-8V17.9z"/>
<path class="st2" d="M343.5,30c-6.9,0-12.5,5.6-12.5,12.5S336.6,55,343.5,55S356,49.4,356,42.5C355.9,35.6,350.3,30,343.5,30"/>
<path class="st0" d="M339,36.2h8.9c0.2,0,0.4,0.2,0.4,0.4v2.7c0,0.2-0.2,0.4-0.4,0.4H339c-0.2,0-0.4-0.2-0.4-0.4v-2.7
	C338.6,36.4,338.8,36.2,339,36.2 M339.5,38.9h8v-1.8h-8V38.9z M339,40.7h8.9c0.2,0,0.4,0.2,0.4,0.4v2.7c0,0.2-0.2,0.4-0.4,0.4H339
	c-0.2,0-0.4-0.2-0.4-0.4v-2.7C338.6,40.9,338.8,40.7,339,40.7 M339.5,43.4h8v-1.8h-8V43.4z M339,45.1h8.9c0.2,0,0.4,0.2,0.4,0.4v2.7
	c0,0.2-0.2,0.4-0.4,0.4H339c-0.2,0-0.4-0.2-0.4-0.4v-2.7C338.6,45.3,338.8,45.1,339,45.1 M339.5,47.8h8V46h-8V47.8z"/>
<path class="st1" d="M369.3,14.3c-0.2-0.6-0.3-1.2-0.3-1.8c0-3,2.5-5.4,5.5-5.4c0.6,0,1.2,0.1,1.8,0.3l2.6-2.6c-1.5-0.6-3-1-4.4-1
	c-8.7,0-15.5,8.7-15.5,8.7s2.5,3.2,6.3,5.7L369.3,14.3z M383.1,7.1l-3.5,3.5c0.3,0.6,0.4,1.3,0.4,2c0,3-2.5,5.4-5.5,5.4
	c-0.7,0-1.4-0.1-2-0.4l-2.8,2.8c1.5,0.5,3.1,0.9,4.9,0.9c6.6,0,15.5-8.7,15.5-8.7S387,9.6,383.1,7.1 M385.4,0l-23.7,23.4l1.6,1.6
	L387,1.6L385.4,0z"/>
<path class="st2" d="M369.3,44.3c-0.2-0.6-0.3-1.2-0.3-1.8c0-3,2.5-5.4,5.5-5.4c0.6,0,1.2,0.1,1.8,0.3l2.6-2.6c-1.5-0.6-3-1-4.4-1
	c-8.7,0-15.5,8.7-15.5,8.7s2.5,3.2,6.3,5.7L369.3,44.3z M383.1,37.1l-3.5,3.5c0.2,0.6,0.4,1.3,0.4,2c0,3-2.5,5.4-5.5,5.4
	c-0.7,0-1.4-0.1-2-0.4l-2.8,2.8c1.5,0.5,3.1,0.9,4.9,0.9c6.6,0,15.5-8.7,15.5-8.7S386.9,39.6,383.1,37.1 M385.4,30l-23.7,23.4
	l1.6,1.6L387,31.6L385.4,30z"/>
<path class="st1" d="M405.5,0C398.6,0,393,5.6,393,12.5S398.6,25,405.5,25S418,19.4,418,12.5S412.4,0,405.5,0 M402,12.8l-0.8,0.3
	l0.5,0.6c0.2,0.3,0.1,0.7-0.1,0.9c-0.1,0.1-0.3,0.1-0.4,0.1c-0.2,0-0.4-0.1-0.6-0.3l-0.5-0.6l-0.5,0.6c-0.1,0.2-0.3,0.3-0.6,0.3
	c-0.1,0-0.3-0.1-0.4-0.1c-0.3-0.2-0.4-0.6-0.1-0.9L399,13l-0.8-0.3c-0.4-0.1-0.5-0.5-0.4-0.9s0.5-0.6,0.9-0.4l0.8,0.3V11
	c0-0.4,0.3-0.7,0.7-0.7c0.4,0,0.7,0.3,0.7,0.7v0.8l0.8-0.3c0.4-0.1,0.7,0.1,0.9,0.4C402.6,12.3,402.4,12.7,402,12.8 M407.3,12.8
	l-0.8,0.3l0.5,0.6c0.2,0.3,0.2,0.7-0.1,0.9c-0.1,0.1-0.3,0.1-0.4,0.1c-0.2,0-0.4-0.1-0.5-0.3l-0.5-0.7l-0.5,0.6
	c-0.1,0.2-0.3,0.3-0.6,0.3c-0.1,0-0.3-0.1-0.4-0.1c-0.3-0.2-0.4-0.6-0.1-1l0.5-0.6l-0.8-0.3c-0.4-0.1-0.6-0.5-0.4-0.9
	c0.1-0.4,0.5-0.6,0.9-0.4l0.8,0.3v-0.8c0-0.4,0.3-0.7,0.7-0.7c0.4,0,0.7,0.3,0.7,0.7v0.8l0.8-0.3c0.4-0.1,0.7,0.1,0.9,0.4
	C407.9,12.3,407.7,12.7,407.3,12.8 M412.7,12.8l-0.8,0.3l0.5,0.6c0.2,0.3,0.1,0.7-0.1,0.9c-0.1,0.1-0.3,0.1-0.4,0.1
	c-0.2,0-0.4-0.1-0.5-0.3l-0.5-0.6l-0.5,0.6c-0.1,0.2-0.3,0.3-0.6,0.3c-0.1,0-0.3-0.1-0.4-0.1c-0.3-0.2-0.4-0.6-0.1-0.9l0.5-0.6
	l-0.8-0.3c-0.4-0.1-0.5-0.5-0.4-0.9s0.5-0.6,0.9-0.4l0.8,0.3V11c0-0.4,0.3-0.7,0.7-0.7c0.4,0,0.7,0.3,0.7,0.7v0.8l0.8-0.3
	c0.4-0.1,0.7,0.1,0.9,0.4C413.2,12.3,413,12.7,412.7,12.8"/>
<path class="st2" d="M405.5,30c-6.9,0-12.5,5.6-12.5,12.5S398.6,55,405.5,55S418,49.4,418,42.5S412.4,30,405.5,30 M402,42.8
	l-0.8,0.3l0.5,0.7c0.2,0.3,0.1,0.7-0.2,0.9c-0.1,0.1-0.3,0.1-0.4,0.1c-0.2,0-0.4-0.1-0.5-0.3l-0.5-0.7l-0.5,0.7
	c-0.1,0.2-0.3,0.3-0.6,0.3c-0.1,0-0.3,0-0.4-0.1c-0.3-0.2-0.4-0.7-0.1-0.9L399,43l-0.8-0.3c-0.4-0.1-0.5-0.5-0.4-0.8
	s0.5-0.5,0.9-0.4l0.8,0.3V41c0-0.4,0.3-0.7,0.7-0.7s0.7,0.3,0.7,0.7v0.8l0.8-0.3c0.4-0.1,0.7,0.1,0.9,0.4
	C402.6,42.3,402.4,42.7,402,42.8 M407.3,42.8l-0.8,0.3l0.5,0.7c0.2,0.3,0.1,0.7-0.1,0.9c-0.1,0.1-0.3,0.1-0.4,0.1
	c-0.2,0-0.4-0.1-0.5-0.3l-0.5-0.7l-0.5,0.7c-0.1,0.2-0.3,0.3-0.5,0.3c-0.1,0-0.3,0-0.4-0.1c-0.3-0.2-0.4-0.7-0.1-1l0.5-0.7l-0.8-0.3
	c-0.4-0.1-0.6-0.5-0.4-0.8c0.1-0.3,0.5-0.6,0.9-0.4l0.8,0.3V41c0-0.4,0.3-0.7,0.7-0.7c0.4,0,0.7,0.3,0.7,0.7v0.8l0.8-0.3
	c0.4-0.1,0.7,0.1,0.9,0.4C407.9,42.3,407.7,42.7,407.3,42.8 M412.7,42.8l-0.8,0.3l0.5,0.7c0.2,0.3,0.1,0.7-0.2,0.9
	c-0.1,0.1-0.3,0.1-0.4,0.1c-0.2,0-0.4-0.1-0.5-0.3l-0.5-0.7l-0.5,0.7c-0.1,0.2-0.3,0.3-0.5,0.3c-0.1,0-0.3,0-0.4-0.1
	c-0.3-0.2-0.4-0.7-0.1-0.9l0.5-0.7l-0.8-0.3c-0.4-0.1-0.6-0.5-0.4-0.8c0.1-0.3,0.5-0.5,0.9-0.4l0.8,0.3V41c0-0.4,0.3-0.7,0.7-0.7
	c0.4,0,0.7,0.3,0.7,0.7v0.8l0.8-0.3c0.4-0.1,0.7,0.1,0.9,0.4C413.2,42.3,413,42.7,412.7,42.8"/>
<path class="st2" d="M285.8,41.7c0.4,0,0.7,0.1,1,0.2l4.7-1.5l-3.6,3.4c0,1.1-0.9,2.1-2.1,2.1c-1.1,0-2.1-0.9-2.1-2.1
	C283.7,42.7,284.6,41.7,285.8,41.7"/>
<path class="st2" d="M276.1,34c2.6-2.6,6.2-4,9.9-4s7.2,1.4,9.9,4c2.6,2.6,4.1,6,4.1,9.7c0,2.4-0.6,4.8-1.8,6.8
	c-0.2,0.3-0.4,0.6-0.6,0.9l2.2,1.6l-6.4,0.9l-0.9-6.3l2.1,1.6c0.1-0.2,0.2-0.4,0.3-0.6c0.9-1.5,1.3-3.2,1.3-5c0-1.4-0.3-2.8-0.8-4
	l-2.3,1.3l-1.2-2l2.3-1.3c-1.6-2.2-4.1-3.6-7-4v2.6h-2.4v-2.6c-2.9,0.3-5.4,1.8-7,4L280,39l-1.2,2l-2.3-1.3c-0.5,1.2-0.8,2.6-0.8,4
	s0.3,2.7,0.8,4l2.3-1.3l1.2,2l-2.3,1.3c0.4,0.5,0.8,0.9,1.2,1.3l1.4,1.3l-2.6,2.7l-1.4-1.3c-1-0.9-1.8-2-2.5-3.1
	c-1.2-2.1-1.9-4.5-1.9-6.9C272,40.1,273.4,36.6,276.1,34"/>
<path class="st3" d="M143.7,70h19.7c1.5,0,2.7,1.2,2.7,2.7v19.7c0,1.5-1.2,2.7-2.7,2.7h-19.7c-1.5,0-2.7-1.2-2.7-2.7V72.7
	C141,71.2,142.2,70,143.7,70L143.7,70z"/>
<path class="st4" d="M160.8,87.1l-5.9-10.3c-0.4-0.6-0.8-0.9-1.3-0.9s-0.9,0.3-1.3,0.9l-5.9,10.3c-0.4,0.6-0.5,1.2-0.2,1.6
	s0.8,0.7,1.5,0.7h11.9c0.7,0,1.2-0.2,1.5-0.7C161.2,88.3,161.1,87.7,160.8,87.1L160.8,87.1L160.8,87.1z M152.7,79.7
	c0.1-0.1,0.2-0.2,0.4-0.3c0.3-0.1,0.6-0.1,0.9,0c0.1,0,0.3,0.1,0.4,0.2c0.1,0.1,0.2,0.2,0.3,0.4c0.1,0.2,0.1,0.3,0.1,0.5
	c0,0.1,0,0.3-0.1,0.5c0,0.3-0.1,0.6-0.2,1c0,0.4-0.1,0.8-0.2,1.2c-0.1,0.4-0.1,0.9-0.2,1.3H153c0-0.4-0.1-0.8-0.1-1.3
	c0-0.4-0.1-0.8-0.2-1.2c0-0.3-0.1-0.7-0.2-1c0-0.3-0.1-0.5-0.1-0.5c0-0.2,0-0.3,0.1-0.5C152.5,80,152.6,79.9,152.7,79.7L152.7,79.7
	L152.7,79.7z M154.3,87.2c-0.1,0.1-0.2,0.2-0.4,0.2c-0.1,0-0.3,0.1-0.4,0.1c-0.3,0-0.6-0.1-0.8-0.3c-0.1-0.1-0.2-0.2-0.3-0.4
	c-0.1-0.1-0.1-0.3-0.1-0.4s0-0.3,0.1-0.4l0.3-0.4c0.1-0.1,0.3-0.2,0.4-0.2c0.1-0.1,0.3-0.1,0.4-0.1c0.2,0,0.3,0,0.4,0.1
	c0.1,0.1,0.3,0.1,0.4,0.2c0.1,0.1,0.2,0.2,0.3,0.4c0.1,0.1,0.1,0.3,0.1,0.4s0,0.3-0.1,0.4C154.5,87,154.4,87.1,154.3,87.2
	L154.3,87.2z"/>
<rect x="170" y="70" class="st5" width="25" height="25"/>
<path class="st3" d="M176.7,82.5c-0.1,0-0.1,0-0.2,0c0,0-0.1,0-0.1,0.1c-0.1,0.3-0.1,0.5-0.1,0.8c0,1.1,0.5,2.1,1.4,2.7
	c0,0,0,0,0,0.1c0.1,0.9,0.4,1.7,0.9,2.4c0.9,1.5,2.3,2.4,3.9,2.4c3.8,0,4.7-4.4,4.8-4.8v-0.1c1.1-0.8,1.6-2.2,1.3-3.5l-0.1-0.1
	c-0.1,0-0.1,0-0.2,0h-0.1v-0.1c0.1-0.5,0.1-0.9,0.1-1.4c0-3.8-2.6-6.8-5.8-6.8s-5.8,3-5.8,6.8C176.7,81.5,176.7,81.9,176.7,82.5
	C176.8,82.5,176.8,82.5,176.7,82.5L176.7,82.5L176.7,82.5L176.7,82.5z"/>
<path class="st3" d="M172.5,95c0.1-0.2,0.5-0.5,1.4-0.9c2.2-0.9,5-0.4,5.4-2.8c0-0.1,0.1-0.1,0.1-0.1l0,0h0.1c1.8,1.3,4.2,1.3,5.9,0
	h0.1l0,0c0.1,0,0.1,0,0.1,0.1c0.4,2.4,3.3,1.9,5.4,2.8c0.9,0.4,1.2,0.7,1.4,0.9H172.5z"/>
<path class="st3" d="M218.7,70h19.7c1.5,0,2.7,1.2,2.7,2.7v19.7c0,1.5-1.2,2.7-2.7,2.7h-19.7c-1.5,0-2.7-1.2-2.7-2.7V72.7
	C216,71.2,217.2,70,218.7,70L218.7,70z"/>
<path class="st4" d="M222.6,82.4c-0.1,0-0.1,0-0.2,0c0,0-0.1,0-0.1,0.1c-0.1,0.3-0.1,0.5-0.1,0.8c0,1.1,0.5,2.1,1.4,2.7
	c0,0,0,0,0,0.1c0.1,0.9,0.4,1.7,0.9,2.4c0.9,1.5,2.3,2.4,4,2.4c3.8,0,4.8-4.4,4.8-4.9v-0.1c0.9-0.6,1.4-1.6,1.4-2.7
	c0-0.3,0-0.5-0.1-0.8l-0.1-0.1c-0.1,0-0.1,0-0.2,0h-0.1v-0.1c0.1-0.5,0.1-0.9,0.1-1.4c0-3.8-2.6-6.9-5.9-6.9c-3.3,0-5.9,3.1-5.9,6.9
	c0,0.5,0,0.9,0.1,1.4C222.7,82.3,222.7,82.4,222.6,82.4C222.7,82.4,222.6,82.4,222.6,82.4L222.6,82.4L222.6,82.4z"/>
<path class="st4" d="M218.4,95c0.2-0.2,0.5-0.5,1.4-0.9c2.2-0.9,5.1-0.4,5.5-2.9c0-0.1,0.1-0.1,0.1-0.1l0,0h0.1c1.8,1.3,4.2,1.3,6,0
	h0.1l0,0c0.1,0,0.1,0,0.1,0.1c0.4,2.5,3.3,2,5.5,2.9c0.9,0.3,1.2,0.7,1.4,0.9c-0.1,0-0.2,0-0.3,0h-19.7C218.6,95,218.5,95,218.4,95
	L218.4,95z"/>
<path class="st6" d="M248.8,70.1h17.5c1.4,0,2.6,1.2,2.6,2.6v17.5c0,1.4-1.2,2.6-2.6,2.6h-17.5c-1.4,0-2.6-1.2-2.6-2.6V72.6
	C246.3,71.2,247.4,70.1,248.8,70.1L248.8,70.1L248.8,70.1z"/>
<path class="st0" d="M248.3,70.6h17.5c1.4,0,2.6,1.2,2.6,2.6v17.5c0,1.4-1.2,2.6-2.6,2.6h-17.5c-1.4,0-2.6-1.2-2.6-2.6V73.2
	C245.7,71.8,246.9,70.6,248.3,70.6L248.3,70.6L248.3,70.6z"/>
<path class="st6" d="M247.7,71.1h17.5c1.4,0,2.6,1.2,2.6,2.6v17.5c0,1.4-1.2,2.6-2.6,2.6h-17.5c-1.4,0-2.6-1.2-2.6-2.6V73.7
	C245.1,72.3,246.3,71.1,247.7,71.1L247.7,71.1z"/>
<path class="st0" d="M247,71.7h17.8c1.3,0,2.4,1.1,2.4,2.4V92c0,1.3-1.1,2.4-2.4,2.4H247c-1.3,0-2.4-1.1-2.4-2.4V74.2
	C244.6,72.8,245.7,71.8,247,71.7L247,71.7z"/>
<path class="st3" d="M246.4,72.3h17.8c1.3,0,2.4,1.1,2.4,2.4v17.8c0,1.3-1.1,2.4-2.4,2.4h-17.8c-1.3,0-2.4-1.1-2.4-2.4V74.7
	C244,73.4,245.1,72.3,246.4,72.3L246.4,72.3z"/>
<path class="st4" d="M250.4,82.3c-0.1,0-0.1,0-0.2,0c0,0-0.1,0-0.1,0.1c-0.1,0.2-0.1,0.4-0.1,0.7c0,0.9,0.4,1.7,1.2,2.2
	c0,0,0,0,0,0.1c0.1,0.7,0.4,1.4,0.7,2c0.7,1.2,1.9,2,3.3,2c3.2,0,3.9-3.7,4-4.1c0,0,0,0,0-0.1c0.7-0.5,1.2-1.3,1.2-2.2
	c0-0.2,0-0.4-0.1-0.7c0,0,0-0.1-0.1-0.1s-0.1,0-0.2,0h-0.1c0,0,0,0,0-0.1c0.1-0.4,0.1-0.8,0.1-1.2c0-3.2-2.2-5.7-4.9-5.7
	c-2.7,0-4.9,2.6-4.9,5.7c0,0.4,0,0.8,0.1,1.2C250.5,82.2,250.5,82.2,250.4,82.3C250.5,82.3,250.5,82.3,250.4,82.3L250.4,82.3z"/>
<path class="st4" d="M247.3,92.4c0.2-0.2,0.5-0.3,0.8-0.4c1.8-0.7,4.2-0.3,4.5-2.4c0-0.1,0.1-0.1,0.1-0.1l0,0h0.1
	c1.5,1.1,3.5,1.1,5,0c0,0,0,0,0.1,0l0,0c0.1,0,0.1,0,0.1,0.1c0.3,2,2.7,1.6,4.5,2.4c0.3,0.1,0.5,0.2,0.8,0.4c-1.1,1.1-2.4,2-3.8,2.6
	h-8.3C249.7,94.4,248.4,93.5,247.3,92.4L247.3,92.4L247.3,92.4z"/>
<path class="st7" d="M298.1,77.7l-4.8,4.8h2.9c0,4.8-3.9,8.6-8.7,8.6c-1.2,0-2.3-0.2-3.3-0.6l-2.9,2.9c1.9,1,3.9,1.5,6.2,1.5
	c7,0,12.6-5.6,12.6-12.5h2.9L298.1,77.7L298.1,77.7z M278.8,82.5c0-4.8,3.9-8.6,8.7-8.6c1.2,0,2.3,0.2,3.3,0.6l2.9-2.9
	c-1.9-1-3.9-1.5-6.2-1.5c-7,0-12.6,5.6-12.6,12.5H272l4.8,4.8l4.8-4.8L278.8,82.5L278.8,82.5z"/>
<g>
	<g>
		<g>
			<defs>
				<path id="SVGID_1_" d="M3,108c-1.7,0-3,1.3-3,3v10c0,1.7,1.3,3,3,3h18c1.7,0,3-1.3,3-3v-10c0-1.7-1.3-3-3-3H3z"/>
			</defs>
			<clipPath id="SVGID_2_">
				<use xlink:href="#SVGID_1_"  style="overflow:visible;"/>
			</clipPath>
			<rect y="108" class="st8" width="24" height="16"/>
		</g>
	</g>
	<g>
		<g>
			<defs>
				<path id="SVGID_3_" d="M3,108c-1.7,0-3,1.3-3,3v10c0,1.7,1.3,3,3,3h18c1.7,0,3-1.3,3-3v-10c0-1.7-1.3-3-3-3H3z"/>
			</defs>
			<clipPath id="SVGID_4_">
				<use xlink:href="#SVGID_3_"  style="overflow:visible;"/>
			</clipPath>
			<polygon class="st9" points="0,113.3 2.9,113.3 0,111.9 0,108 0.1,108 9.4,112.7 9.4,108 14.6,108 14.6,112.7 23.9,108 24,108 
				24,111.8 21.1,113.3 24,113.3 24,118.7 21.1,118.7 24,120.2 24,124 23.9,124 14.6,119.3 14.6,124 9.4,124 9.4,119.3 0.1,124 
				0,124 0,120.1 2.9,118.7 0,118.7 			"/>
		</g>
	</g>
	<g>
		<g>
			<defs>
				<path id="SVGID_5_" d="M3,108c-1.7,0-3,1.3-3,3v10c0,1.7,1.3,3,3,3h18c1.7,0,3-1.3,3-3v-10c0-1.7-1.3-3-3-3H3z"/>
			</defs>
			<clipPath id="SVGID_6_">
				<use xlink:href="#SVGID_5_"  style="overflow:visible;"/>
			</clipPath>
			<polygon class="st10" points="24,108.6 14.8,113.3 17.3,113.3 24,109.9 			"/>
		</g>
	</g>
	<g>
		<g>
			<defs>
				<path id="SVGID_7_" d="M3,108c-1.7,0-3,1.3-3,3v10c0,1.7,1.3,3,3,3h18c1.7,0,3-1.3,3-3v-10c0-1.7-1.3-3-3-3H3z"/>
			</defs>
			<clipPath id="SVGID_8_">
				<use xlink:href="#SVGID_7_"  style="overflow:visible;"/>
			</clipPath>
			<polygon class="st11" points="24,122.1 17.3,118.7 19.8,118.7 24,120.8 			"/>
		</g>
	</g>
	<g>
		<g>
			<defs>
				<path id="SVGID_9_" d="M3,108c-1.7,0-3,1.3-3,3v10c0,1.7,1.3,3,3,3h18c1.7,0,3-1.3,3-3v-10c0-1.7-1.3-3-3-3H3z"/>
			</defs>
			<clipPath id="SVGID_10_">
				<use xlink:href="#SVGID_9_"  style="overflow:visible;"/>
			</clipPath>
			<polygon class="st12" points="6.8,113.3 0,109.9 0,111.2 4.2,113.3 			"/>
		</g>
	</g>
	<g>
		<g>
			<defs>
				<path id="SVGID_11_" d="M3,108c-1.7,0-3,1.3-3,3v10c0,1.7,1.3,3,3,3h18c1.7,0,3-1.3,3-3v-10c0-1.7-1.3-3-3-3H3z"/>
			</defs>
			<clipPath id="SVGID_12_">
				<use xlink:href="#SVGID_11_"  style="overflow:visible;"/>
			</clipPath>
			<polygon class="st13" points="6.8,118.7 0,122.1 0,123.4 9.3,118.7 			"/>
		</g>
	</g>
	<g>
		<g>
			<defs>
				<path id="SVGID_13_" d="M3,108c-1.7,0-3,1.3-3,3v10c0,1.7,1.3,3,3,3h18c1.7,0,3-1.3,3-3v-10c0-1.7-1.3-3-3-3H3z"/>
			</defs>
			<clipPath id="SVGID_14_">
				<use xlink:href="#SVGID_13_"  style="overflow:visible;"/>
			</clipPath>
			<polygon class="st14" points="0,114.4 10.5,114.4 10.5,108 13.6,108 13.6,114.4 24,114.4 24,117.6 13.6,117.6 13.6,124 10.5,124 
				10.5,117.6 0,117.6 			"/>
		</g>
	</g>
</g>
<g>
	<g>
		<g>
			<defs>
				<path id="SVGID_15_" d="M33,108c-1.7,0-3,1.3-3,3v10c0,1.7,1.3,3,3,3h18c1.7,0,3-1.3,3-3v-10c0-1.7-1.3-3-3-3H33z"/>
			</defs>
			<clipPath id="SVGID_16_">
				<use xlink:href="#SVGID_15_"  style="overflow:visible;"/>
			</clipPath>
			<rect x="38" y="108" class="st15" width="7.9" height="16"/>
		</g>
	</g>
	<g>
		<g>
			<defs>
				<path id="SVGID_17_" d="M33,108c-1.7,0-3,1.3-3,3v10c0,1.7,1.3,3,3,3h18c1.7,0,3-1.3,3-3v-10c0-1.7-1.3-3-3-3H33z"/>
			</defs>
			<clipPath id="SVGID_18_">
				<use xlink:href="#SVGID_17_"  style="overflow:visible;"/>
			</clipPath>
			<rect x="45.9" y="108" class="st16" width="8" height="16"/>
		</g>
	</g>
	<g>
		<g>
			<defs>
				<path id="SVGID_19_" d="M33,108c-1.7,0-3,1.3-3,3v10c0,1.7,1.3,3,3,3h18c1.7,0,3-1.3,3-3v-10c0-1.7-1.3-3-3-3H33z"/>
			</defs>
			<clipPath id="SVGID_20_">
				<use xlink:href="#SVGID_19_"  style="overflow:visible;"/>
			</clipPath>
			<polygon class="st17" points="38,108 30,108 30,124 38,124 38,124 38,124 			"/>
		</g>
	</g>
</g>
<g>
	<g>
		<g>
			<defs>
				<path id="SVGID_21_" d="M60,108c-1.7,0-3,1.3-3,3v10c0,1.7,1.3,3,3,3h18c1.7,0,3-1.3,3-3v-10c0-1.7-1.3-3-3-3H60z"/>
			</defs>
			<clipPath id="SVGID_22_">
				<use xlink:href="#SVGID_21_"  style="overflow:visible;"/>
			</clipPath>
			<rect x="57" y="108" class="st18" width="24" height="5.3"/>
		</g>
	</g>
	<g>
		<g>
			<defs>
				<path id="SVGID_23_" d="M60,108c-1.7,0-3,1.3-3,3v10c0,1.7,1.3,3,3,3h18c1.7,0,3-1.3,3-3v-10c0-1.7-1.3-3-3-3H60z"/>
			</defs>
			<clipPath id="SVGID_24_">
				<use xlink:href="#SVGID_23_"  style="overflow:visible;"/>
			</clipPath>
			<rect x="57" y="113.4" class="st19" width="24" height="5.3"/>
		</g>
	</g>
	<g>
		<g>
			<defs>
				<path id="SVGID_25_" d="M60,108c-1.7,0-3,1.3-3,3v10c0,1.7,1.3,3,3,3h18c1.7,0,3-1.3,3-3v-10c0-1.7-1.3-3-3-3H60z"/>
			</defs>
			<clipPath id="SVGID_26_">
				<use xlink:href="#SVGID_25_"  style="overflow:visible;"/>
			</clipPath>
			<rect x="57" y="118.7" class="st20" width="24" height="5.3"/>
		</g>
	</g>
</g>
<g>
	<g>
		<g>
			<defs>
				<path id="SVGID_27_" d="M87,108c-1.7,0-3,1.3-3,3v10c0,1.7,1.3,3,3,3h18c1.7,0,3-1.3,3-3v-10c0-1.7-1.3-3-3-3H87z"/>
			</defs>
			<clipPath id="SVGID_28_">
				<use xlink:href="#SVGID_27_"  style="overflow:visible;"/>
			</clipPath>
			<rect x="84" y="111.7" class="st21" width="23.9" height="8.4"/>
		</g>
	</g>
	<g>
		<g>
			<defs>
				<path id="SVGID_29_" d="M87,108c-1.7,0-3,1.3-3,3v10c0,1.7,1.3,3,3,3h18c1.7,0,3-1.3,3-3v-10c0-1.7-1.3-3-3-3H87z"/>
			</defs>
			<clipPath id="SVGID_30_">
				<use xlink:href="#SVGID_29_"  style="overflow:visible;"/>
			</clipPath>
			<rect x="84" y="108" class="st22" width="23.9" height="4.5"/>
		</g>
	</g>
	<g>
		<g>
			<defs>
				<path id="SVGID_31_" d="M87,108c-1.7,0-3,1.3-3,3v10c0,1.7,1.3,3,3,3h18c1.7,0,3-1.3,3-3v-10c0-1.7-1.3-3-3-3H87z"/>
			</defs>
			<clipPath id="SVGID_32_">
				<use xlink:href="#SVGID_31_"  style="overflow:visible;"/>
			</clipPath>
			<rect x="84" y="119.5" class="st23" width="23.9" height="4.5"/>
		</g>
	</g>
	<g>
		<g>
			<defs>
				<path id="SVGID_33_" d="M87,108c-1.7,0-3,1.3-3,3v10c0,1.7,1.3,3,3,3h18c1.7,0,3-1.3,3-3v-10c0-1.7-1.3-3-3-3H87z"/>
			</defs>
			<clipPath id="SVGID_34_">
				<use xlink:href="#SVGID_33_"  style="overflow:visible;"/>
			</clipPath>
			<path class="st24" d="M89.5,114.6c-1,0.1-1.5-0.5-1.6-0.6l0,0l0,0c-0.1,0.1-0.6,0.7-1.6,0.6c0,0-0.2,2.8,1.6,3.2
				C89.7,117.4,89.5,114.6,89.5,114.6"/>
		</g>
	</g>
</g>
<g>
	<g>
		<g>
			<defs>
				<path id="SVGID_35_" d="M115,108c-1.7,0-3,1.3-3,3v10c0,1.7,1.3,3,3,3h18c1.7,0,3-1.3,3-3v-10c0-1.7-1.3-3-3-3H115z"/>
			</defs>
			<clipPath id="SVGID_36_">
				<use xlink:href="#SVGID_35_"  style="overflow:visible;"/>
			</clipPath>
			<rect x="112" y="108" class="st25" width="24" height="5.4"/>
		</g>
	</g>
	<g>
		<g>
			<defs>
				<path id="SVGID_37_" d="M115,108c-1.7,0-3,1.3-3,3v10c0,1.7,1.3,3,3,3h18c1.7,0,3-1.3,3-3v-10c0-1.7-1.3-3-3-3H115z"/>
			</defs>
			<clipPath id="SVGID_38_">
				<use xlink:href="#SVGID_37_"  style="overflow:visible;"/>
			</clipPath>
			<rect x="112" y="113.3" class="st26" width="24" height="5.4"/>
		</g>
	</g>
	<g>
		<g>
			<defs>
				<path id="SVGID_39_" d="M115,108c-1.7,0-3,1.3-3,3v10c0,1.7,1.3,3,3,3h18c1.7,0,3-1.3,3-3v-10c0-1.7-1.3-3-3-3H115z"/>
			</defs>
			<clipPath id="SVGID_40_">
				<use xlink:href="#SVGID_39_"  style="overflow:visible;"/>
			</clipPath>
			<rect x="112" y="118.5" class="st27" width="24" height="5.4"/>
		</g>
	</g>
</g>
<path class="st0" d="M11,31.7c0,0.2-0.1,0.3-0.2,0.5L5,37.9c-0.1,0.1-0.3,0.2-0.5,0.2S4.2,38,4,37.9L0.1,34c0-0.1-0.1-0.2-0.1-0.4
	s0.1-0.4,0.2-0.5l1-1c0.1-0.1,0.3-0.2,0.5-0.2s0.4,0.1,0.5,0.2l2.4,2.4l4.3-4.3C9,30.1,9.2,30,9.4,30s0.3,0.1,0.5,0.2l1,1
	C10.9,31.3,11,31.5,11,31.7L11,31.7L11,31.7z"/>
<g>
	<path class="st3" d="M324.4,80.1c0.1,0,0.2,0,0.3-0.1c0.2-0.1,0.2-0.4,0.1-0.6c-1.1-1.4-1.1-2.7,0-4.1c0.1-0.2,0.1-0.4-0.1-0.6
		c-0.2-0.1-0.5-0.1-0.6,0.1c-1.3,1.7-1.3,3.4,0,5.1C324.2,80.1,324.3,80.1,324.4,80.1z M319.6,75.4c1,1.4,1,2.7,0,4.1
		c-0.1,0.2-0.1,0.5,0.1,0.6c0.1,0.1,0.2,0.1,0.2,0.1c0.1,0,0.3-0.1,0.4-0.2c1.2-1.6,1.2-3.4,0-5.1l-0.1-0.2c-1-1.3-1-2.6,0-4.1
		c0.1-0.2,0.1-0.5-0.1-0.6s-0.5-0.1-0.6,0.1c-1.2,1.7-1.2,3.5,0,5.1L319.6,75.4z M330.6,81.3h-15.5l0,0c-0.2,0-0.4,0.2-0.4,0.4v1.7
		c-0.1,0-0.1,0-0.1,0c-1.2,0-2.3,0.4-3.2,1.3s-1.3,1.9-1.3,3.2s0.4,2.3,1.3,3.2s2,1.3,3.2,1.3h0.1v0.5c0,1.5,0.8,2.3,2.3,2.3h11.8
		c1.5,0,2.3-0.8,2.3-2.3v-11C331,81.5,330.8,81.3,330.6,81.3z M314.6,91.4h-0.1c-1,0-1.9-0.3-2.6-1.1s-1.1-1.5-1.1-2.6
		s0.4-1.9,1.1-2.6s1.5-1,2.5-1h0.1h0.1l0,0V91.4z M330.1,92.7c0,1-0.4,1.4-1.4,1.4h-11.8c-1,0-1.4-0.4-1.4-1.4V82.1h14.7L330.1,92.7
		L330.1,92.7z"/>
</g>
<path class="st28" d="M390,72.6c0-1.4-1.2-2.6-2.6-2.6h-25.8c-1.4,0-2.6,1.2-2.6,2.6v19.8c0,1.4,1.2,2.6,2.6,2.6h25.8
	c1.4,0,2.6-1.2,2.6-2.6V72.6z M387.4,72.1c0.3,0,0.5,0.2,0.5,0.5v19.8c0,0.3-0.2,0.5-0.5,0.5h-25.8c-0.3,0-0.5-0.2-0.5-0.5V72.6
	c0-0.3,0.2-0.5,0.5-0.5L387.4,72.1z M385.9,83.5l-6.7-6.8l-8.3,8.3l-2.6-2.6l-5.2,5.2v3.1h22.8L385.9,83.5z M369.3,77.3
	c0-1.7-1.4-3.1-3.1-3.1s-3.1,1.4-3.1,3.1s1.4,3.1,3.1,3.1S369.3,79,369.3,77.3L369.3,77.3z"/>
<path class="st29" d="M401,70l-8,9.4h1.3l6.7-7.8l6.7,7.8h1.3L401,70z M401,73.1l-8,9.4h4.9c0.5,5.5,2.7,9.9,9.5,12.5
	c-3.3-3.9-4.4-7.7-3.8-12.5h5.4L401,73.1z"/>
<path class="st29" d="M422,95l8-9.4h-1.3l-6.7,7.8l-6.7-7.8H414L422,95z M422,91.9l8-9.4h-4.9c-0.5-5.5-2.7-9.9-9.5-12.5
	c3.3,3.9,4.4,7.7,3.8,12.5H414L422,91.9z"/>
<g>
	<path class="st30" d="M228.6,108c-6.9,0-12.4,5.6-12.4,12.5s5.6,12.5,12.4,12.5c6.9,0,12.4-5.6,12.4-12.5S235.4,108,228.6,108z
		 M228.6,130.5c-5.5,0-9.9-4.5-9.9-10s4.5-10,9.9-10s9.9,4.5,9.9,10S234,130.5,228.6,130.5z"/>
	<polygon class="st30" points="229.1,114.2 227.2,114.2 227.2,121.7 233.5,124.1 234.1,122.7 229.1,120.7 	"/>
</g>
<path class="st31" d="M0,151.3c0,0.9,0.8,1.7,1.7,1.7h13.6c0.9,0,1.7-0.7,1.7-1.7V143c0-0.9-0.8-1.7-1.7-1.7H5.1v-2.9
	c0-1.8,1.5-3.3,3.4-3.3s3.4,1.5,3.4,3.3v0.2c0,0.6,0.5,1,1.1,1s1.1-0.5,1.1-1v-0.2c0-3-2.5-5.4-5.5-5.4c-3.1,0-5.5,2.4-5.5,5.4v2.9
	H1.7C0.8,141.3,0,142,0,143V151.3L0,151.3z M6.8,145.9c0-0.9,0.8-1.7,1.7-1.7s1.7,0.7,1.7,1.7c0,0.6-0.3,1.1-0.8,1.4
	c0,0,0.2,1,0.4,2.1c0,0.3-0.3,0.6-0.6,0.6H7.9c-0.4,0-0.6-0.3-0.6-0.6l0.4-2.1C7.1,147,6.8,146.5,6.8,145.9z"/>
<path class="st32" d="M33,138.4v2.9h-1.3c-0.9,0-1.7,0.7-1.7,1.7v8.3c0,0.9,0.8,1.7,1.7,1.7h13.6c0.9,0,1.7-0.7,1.7-1.7V143
	c0-0.9-0.8-1.7-1.7-1.7H44v-2.9c0-3-2.5-5.4-5.5-5.4C35.5,133,33,135.4,33,138.4z M35.1,141.3v-2.9c0-1.8,1.5-3.3,3.4-3.3
	s3.4,1.5,3.4,3.3v2.9H35.1z M36.8,145.9c0-0.9,0.8-1.7,1.7-1.7s1.7,0.7,1.7,1.7c0,0.6-0.3,1.1-0.8,1.4c0,0,0.2,1,0.4,2.1
	c0,0.3-0.3,0.6-0.6,0.6h-1.3c-0.4,0-0.6-0.3-0.6-0.6l0.4-2.1C37.1,147,36.8,146.5,36.8,145.9z"/>
<g>
	<path class="st33" d="M253.5,108c-5.2,0-9.5,4.3-9.5,9.5s4.3,9.5,9.5,9.5c5.2,0,9.5-4.3,9.5-9.5S258.7,108,253.5,108z M253.5,125.1
		c-4.2,0-7.6-3.4-7.6-7.6s3.4-7.6,7.6-7.6s7.6,3.4,7.6,7.6S257.7,125.1,253.5,125.1z"/>
	<polygon class="st33" points="253.9,112.7 252.5,112.7 252.5,118.4 257.2,120.3 257.7,119.1 253.9,117.7 	"/>
</g>
<path id="Chevron_Right" class="st34" d="M61.9,137.2l-4.1-4c-0.2-0.2-0.5-0.2-0.6,0c-0.2,0.2-0.2,0.5,0,0.6l3.8,3.7l-3.8,3.7
	c-0.2,0.2-0.2,0.5,0,0.6s0.5,0.2,0.6,0l4.1-4C62,137.6,62,137.4,61.9,137.2z"/>
<path class="st31" d="M84,144.9c0,0.6,0.5,1.1,1.1,1.1h8.8c0.6,0,1.1-0.5,1.1-1.1v-5.4c0-0.6-0.5-1.1-1.1-1.1h-6.6v-1.9
	c0-1.2,1-2.1,2.2-2.1s2.2,1,2.2,2.1v0.1c0,0.4,0.3,0.6,0.7,0.6c0.4,0,0.7-0.3,0.7-0.6v-0.1c0-1.9-1.6-3.5-3.6-3.5s-3.6,1.6-3.6,3.5
	v1.9H85c-0.6,0-1.1,0.5-1.1,1.1L84,144.9L84,144.9z M88.4,141.4c0-0.6,0.5-1.1,1.1-1.1s1.1,0.5,1.1,1.1c0,0.4-0.2,0.7-0.5,0.9
	c0,0,0.1,0.6,0.3,1.4c0,0.2-0.2,0.4-0.4,0.4h-0.8c-0.3,0-0.4-0.2-0.4-0.4l0.3-1.4C88.6,142.1,88.4,141.8,88.4,141.4z"/>
<path class="st32" d="M113.9,136.5v1.9h-0.8c-0.6,0-1.1,0.5-1.1,1.1v5.4c0,0.6,0.5,1.1,1.1,1.1h8.8c0.6,0,1.1-0.5,1.1-1.1v-5.4
	c0-0.6-0.5-1.1-1.1-1.1H121v-1.9c0-1.9-1.6-3.5-3.6-3.5S113.9,134.6,113.9,136.5z M115.3,138.4v-1.9c0-1.2,1-2.1,2.2-2.1
	s2.2,1,2.2,2.1v1.9H115.3z M116.4,141.4c0-0.6,0.5-1.1,1.1-1.1s1.1,0.5,1.1,1.1c0,0.4-0.2,0.7-0.5,0.9c0,0,0.1,0.6,0.3,1.4
	c0,0.2-0.2,0.4-0.4,0.4h-0.8c-0.3,0-0.4-0.2-0.4-0.4l0.3-1.4C116.6,142.1,116.4,141.8,116.4,141.4z"/>
<path class="st35" d="M142.9,136.5v1.9h-0.8c-0.6,0-1.1,0.5-1.1,1.1v5.4c0,0.6,0.5,1.1,1.1,1.1h8.8c0.6,0,1.1-0.5,1.1-1.1v-5.4
	c0-0.6-0.5-1.1-1.1-1.1H150v-1.9c0-1.9-1.6-3.5-3.6-3.5S142.9,134.6,142.9,136.5z M144.3,138.4v-1.9c0-1.2,1-2.1,2.2-2.1
	s2.2,1,2.2,2.1v1.9H144.3z M145.4,141.4c0-0.6,0.5-1.1,1.1-1.1s1.1,0.5,1.1,1.1c0,0.4-0.2,0.7-0.5,0.9c0,0,0.1,0.6,0.3,1.4
	c0,0.2-0.2,0.4-0.4,0.4h-0.8c-0.3,0-0.4-0.2-0.4-0.4l0.3-1.4C145.6,142.1,145.4,141.8,145.4,141.4z"/>
<path class="st35" d="M173,138.4v2.9h-1.3c-0.9,0-1.7,0.7-1.7,1.7v8.3c0,0.9,0.8,1.7,1.7,1.7h13.6c0.9,0,1.7-0.7,1.7-1.7V143
	c0-0.9-0.8-1.7-1.7-1.7H184v-2.9c0-3-2.5-5.4-5.5-5.4S173,135.4,173,138.4z M175.1,141.3v-2.9c0-1.8,1.5-3.3,3.4-3.3
	s3.4,1.5,3.4,3.3v2.9H175.1z M176.8,145.9c0-0.9,0.8-1.7,1.7-1.7s1.7,0.7,1.7,1.7c0,0.6-0.3,1.1-0.8,1.4c0,0,0.2,1,0.4,2.1
	c0,0.3-0.3,0.6-0.6,0.6h-1.3c-0.4,0-0.6-0.3-0.6-0.6l0.4-2.1C177.1,147,176.8,146.5,176.8,145.9z"/>
<g id="Page-1">
	<g id="Icons-AV" transform="translate(-209.000000, -84.000000)">
		<g id="queue" transform="translate(209.000000, 84.000000)">
			<path id="Shape" class="st36" d="M273.9,111.8H272v15.3c0,1.1,0.9,1.9,1.9,1.9h15.3v-1.9h-15.3V111.8L273.9,111.8z M291.1,108
				h-13.4c-1,0-1.9,0.9-1.9,1.9v13.4c0,1.1,0.9,1.9,1.9,1.9h13.4c1,0,1.9-0.9,1.9-1.9v-13.4C293,108.9,292.1,108,291.1,108
				L291.1,108z M289.2,117.5h-3.8v3.8h-1.9v-3.8h-3.8v-1.9h3.8v-3.8h1.9v3.8h3.8V117.5L289.2,117.5z"/>
		</g>
	</g>
</g>
<g>
	<g>
		<ellipse class="st3" cx="68.8" cy="258.8" rx="14.2" ry="14.2"/>
		<path class="st3" d="M100.2,213.6c-2.8-1.8-5.8-3.4-9-4.7c-7.1-3-14.7-4.5-22.5-4.5c-8,0-15.7,1.6-23,4.7c-7,3-13.3,7.3-18.6,12.8
			l18,17.3c6.2-6.4,14.6-9.9,23.6-9.9c8.7,0,17,3.4,23.2,9.5l4.5-4.5l-8.5-8.5L100.2,213.6z"/>
		<path class="st3" d="M68.8,189.8c19.2,0,37.3,7.4,50.9,20.8l17.6-17.6c-8.9-8.8-19.3-15.7-30.8-20.5c-11.9-5-24.6-7.5-37.7-7.5
			s-25.9,2.6-37.9,7.6c-11.6,4.9-22,11.8-30.9,20.7l17.7,17.6C31.3,197.3,49.5,189.8,68.8,189.8z"/>
		<polygon class="st3" points="110.1,213.9 98.1,225.8 114.1,241.6 98.1,257.5 110.1,269.4 126.1,253.5 142,269.4 154,257.5 
			138,241.6 154,225.8 142,213.9 126.1,229.7 		"/>
	</g>
</g>
<path class="st28" d="M311.6,118.5c0,2.2,1.7,3.9,3.9,3.9c2.1,0,3.9-1.8,3.9-3.9l0,0c-0.4,0.4-1,0.7-1.6,0.7c-1.2,0-2.3-1-2.3-2.3
	c0-0.9,0.5-1.7,1.3-2.1c-0.4-0.1-0.8-0.2-1.3-0.2C313.4,114.6,311.6,116.3,311.6,118.5z M330.1,116.3c-2.4-3.1-8.3-8.3-14.6-8.3
	c-6.4,0-12.2,5.2-14.6,8.3c-0.5,0.7-0.8,1.5-0.9,2.2c0,0.8,0.3,1.5,0.9,2.2c2.4,3.1,8.3,8.3,14.6,8.3s12.2-5.2,14.6-8.3
	c0.5-0.7,0.8-1.5,0.9-2.2C331,117.7,330.7,117,330.1,116.3z M315.5,125.1c-3.6,0-6.5-2.9-6.5-6.6c0-3.6,2.9-6.6,6.5-6.6
	s6.5,2.9,6.5,6.6C322,122.1,319.1,125.1,315.5,125.1z"/>
<g>
	<g>
		<path class="st3" d="M234,273c-29.8,0-54-24.2-54-54s24.2-54,54-54s54,24.2,54,54S263.8,273,234,273z M184.1,219
			c0,13,5,24.9,13.2,33.7l70.4-70.4c-8.9-8.2-20.7-13.2-33.7-13.2C206.5,169.1,184.1,191.5,184.1,219z M270.7,185.3l-70.4,70.4
			c8.9,8.2,20.7,13.2,33.7,13.2c27.5,0,49.9-22.4,49.9-49.9C283.9,206,278.8,194.1,270.7,185.3z"/>
	</g>
</g>
<g>
	<path class="st37" d="M359.7,171.9h-38.5c-3.7,0-6.7,2.8-6.7,6.3v71c0,3.6,3.1,8.2,6.7,8.2l36.8,0.1c1.6,0.5,5.3,1.8,8.3,4.5v-83.8
		C366.3,174.7,363.3,171.9,359.7,171.9z"/>
	<path class="st37" d="M378.1,255.2l-0.7-0.2l-3.4-1.4l1.8-3.2l2.6-4.7l-2.4-1.6l-2.8-1.8l1.9-2.7c1.7-2.5,2.9-4.2,3.8-5.4
		c-0.7-1.5-1.6-4-2.5-6.1l-0.7-1.6l1.1-1.5l2.6-3.7l-3.3-3.7l-1.6-1.9l1.5-2l2.4-3.4l-2.9-2.9l-2-2l1.7-2.3l3.3-4.5l-2.4-2.9
		l-1.5-1.8l1.4-2l3.5-5.3l-2.5-3l-1.5-1.9l1.4-2l2.4-3.6l-1.3-4l-0.6-1.8l-0.7-1.8c-0.8,0.1-1.8,0.3-2.7,0.7c-1.8,0.8-2.5,2-2.5,4
		v2.4v83.4C373.3,257,375.5,255.4,378.1,255.2z"/>
	<path class="st37" d="M415.9,171.9h-34.6l1.5,4.5l-3.3,4.9l4.1,4.9l-4.9,7.3l4.1,4.9l-4.9,6.5l4.9,4.9l-4.1,5.7l4.9,5.7l-4.1,5.7
		c0,0,3.5,8.1,3.3,8.1l0,0l0,0c-0.4,0-4.9,6.5-4.9,6.5l4.9,3.2l-4.1,7.3l4.1,1.6c0,0,1.1,2.4-0.3,3.7h33.5c3.5,0,6.7-4.5,6.7-8.2
		v-70.9C422.6,174.7,419.6,171.9,415.9,171.9z"/>
	<path class="st3" d="M415.9,167.4h-36.3l-1-2.4c0,0-0.2,0-0.3,0c-1.7,0-8.9,0.4-10.1,6.4c-2-2.4-5.1-4-8.6-4h-38.5
		c-6.1,0-11.1,4.8-11.1,10.7v71c0,5.8,4.9,12.7,11.1,12.7H357c2.5,0.8,9.3,4.5,9.3,11.2h4.5c0-6.7,6.7-10.4,9.3-11.2h35.9
		c6.3,0,11.1-6.8,11.1-12.7v-71C427.1,172.2,422.1,167.4,415.9,167.4z M366.3,262c-3-2.8-6.7-4.1-8.3-4.5l-36.8-0.1
		c-3.5,0-6.7-4.5-6.7-8.2v-71c0-3.4,3-6.2,6.7-6.2h38.5c3.7,0,6.7,2.8,6.7,6.2L366.3,262L366.3,262z M371.4,175.6v-2.4
		c0-2,0.7-3.2,2.5-4c0.9-0.4,1.9-0.6,2.7-0.7l0.7,1.8l0.6,1.7l1.3,4l-2.4,3.6l-1.4,2l1.5,1.9l2.5,3l-3.5,5.3l-1.4,2l1.5,1.9l2.4,2.9
		l-3.3,4.5l-1.7,2.3l2,2l2.9,2.9l-2.4,3.4l-1.5,2l1.6,1.9l3.3,3.7l-2.6,3.7l-1.1,1.4l0.7,1.7c0.9,2.1,2,4.5,2.5,6.1
		c-0.9,1.1-2.1,2.9-3.8,5.4l-1.9,2.7l2.8,1.8l2.4,1.6l-2.6,4.7l-1.8,3.2l3.4,1.4l0.7,0.2c-2.7,0.2-4.9,1.8-6.7,3.8V175.6z
		 M422.6,249.2c0,3.6-3.1,8.2-6.7,8.2h-33.5c1.5-1.5,0.3-3.7,0.3-3.7l-4.1-1.6l4.1-7.3l-4.9-3.2c0,0,4.5-6.5,4.9-6.5l0,0l0,0
		c0.2,0-3.3-8.1-3.3-8.1l4.1-5.7l-4.9-5.7l4.1-5.7l-4.9-4.9l4.9-6.5l-4.1-4.9l4.9-7.3l-4.1-4.9l3.3-4.9l-1.5-4.5h34.6
		c3.7,0,6.7,2.8,6.7,6.2L422.6,249.2L422.6,249.2z"/>
</g>
<g>
	<path class="st3" d="M108,286.7L58.7,336l49.3,49.3l-4.7,4.7L54,340.7L4.7,390L0,385.3L49.3,336L0,286.7l4.7-4.7L54,331.3
		l49.3-49.3L108,286.7z"/>
</g>
<g id="XMLID_12_">
	<g>
		<path class="st38" d="M0.9,92.5v-3.4c2.1,0.7,4.5,1.1,7.2,1.1c2,0,3-0.6,3-1.7c0-1-0.7-1.5-2-1.5H5.7C1.9,86.9,0,85.3,0,82
			C0,78.6,2.8,77,8.3,77c2.4,0,4.6,0.3,6.6,0.9v3.4c-2.1-0.7-4.3-1.1-6.8-1.1c-2.6,0-3.8,0.6-3.8,1.7c0,1,0.7,1.5,2.2,1.5h3
			c4.2,0,6.2,1.6,6.2,4.9c0,3.4-2.6,5.1-7.9,5.1C5.3,93.4,3,93.1,0.9,92.5z"/>
		<path class="st38" d="M50.3,93.3v-17c0-3.9,2.8-5.8,8.4-5.8c1.5,0,2.9,0.2,4.2,0.6v3.2c-1.2-0.4-2.6-0.6-4.2-0.6
			c-2.4,0-3.7,1.1-3.7,3.4h5.6v3.2H55v12.9L50.3,93.3z"/>
		<path class="st38" d="M79.3,86.7H67c0,2.2,2.1,3.3,6.2,3.3c1.9,0,3.8-0.2,5.7-0.5v3.2c-1.6,0.3-3.8,0.5-6.4,0.5
			c-6.8,0-10.2-2.7-10.2-8.2c0-5.2,3.1-7.9,9.3-7.9C77.8,77.1,80.4,80.3,79.3,86.7z M67,83.8h7.8c0.2-2.3-1.1-3.5-3.7-3.5
			C68.6,80.3,67.3,81.5,67,83.8z"/>
		<path class="st38" d="M87.1,89.5v3.8h-4.7v-3.8H87.1z"/>
		<path class="st38" d="M90.2,88.2c0-3.3,2.7-5,8.1-5c1.6,0,3.1,0.1,4.3,0.3v-1.1c0-1.4-1.6-2.2-4.9-2.2c-2,0-4.1,0.3-6.1,0.8v-3.2
			c2-0.5,4-0.8,6.1-0.8c6.4,0,9.6,1.8,9.6,5.3v10.8H105l-2-1.1c-1.6,0.8-3.4,1.1-5.2,1.1C92.7,93.2,90.2,91.5,90.2,88.2z M98.3,86.3
			c-2.3,0-3.4,0.6-3.4,1.8c0,1.2,0.9,1.8,2.8,1.8c1.9,0,3.6-0.4,4.9-1.3v-2.1C101.5,86.4,100,86.3,98.3,86.3z"/>
		<path class="st38" d="M129.1,92.3c-2.9,0.6-5.8,1-8.7,1c-6.3,0-9.4-2.8-9.4-8.4c0-5.2,3-7.7,9-7.7c1.6,0,3.1,0.3,4.4,0.8v-6.6h4.7
			V92.3z M124.4,81.3c-1.2-0.6-2.7-0.8-4.4-0.8c-2.9,0-4.4,1.4-4.4,4.2c0,3.4,1.5,5,4.4,5c1.7,0,3.2-0.2,4.4-0.6V81.3z"/>
	</g>
	<g>
		<path id="XMLID_2_" class="st38" d="M33.5,89.4c-0.2,0-0.4,0-0.6,0c-1.4,0-2.6-0.6-3.5-1.4c-0.9-0.9-1.4-2.1-1.4-3.5
			c0-1.4,0.6-2.6,1.4-3.5c0.9-0.9,2.1-1.4,3.5-1.4c1.4,0,2.6,0.6,3.5,1.4c0.9,0.9,1.4,2.1,1.4,3.5c0,0.6-0.1,1.2-0.3,1.8l0,0l0,0
			l0,0.1c-0.1,0.5-0.2,0.9-0.2,1.4c0,1,0.3,2,0.9,2.8c0.6,0.8,1.4,1.4,2.4,1.7c0.5,0.1,0.9,0.2,1.4,0.2c1,0,2-0.3,2.8-0.9
			c0.8-0.6,1.4-1.4,1.7-2.4l-1.6-0.5l1.6,0.5l0.1-0.2l0,0c0.5-1.4,0.7-3,0.7-4.5c0-8-6.5-14.4-14.4-14.4c-8,0-14.4,6.5-14.4,14.4
			c0,8,6.5,14.4,14.4,14.4c2.3,0,4.6-0.6,6.5-1.6c0.8-0.4,1.2-1.4,0.7-2.3c-0.4-0.8-1.4-1.2-2.3-0.7c-1.5,0.8-3.2,1.2-5,1.2
			c-3.1,0-5.8-1.2-7.8-3.2c-2-2-3.2-4.8-3.2-7.8c0-3.1,1.2-5.8,3.2-7.8c2-2,4.8-3.2,7.8-3.2c3.1,0,5.8,1.2,7.8,3.2
			c2,2,3.2,4.8,3.2,7.8c0,1.2-0.2,2.4-0.6,3.5l0,0l-0.1,0.2l0,0c-0.1,0.3-0.3,0.5-0.5,0.7c-0.2,0.2-0.5,0.3-0.8,0.3
			c-0.1,0-0.3,0-0.4-0.1c-0.3-0.1-0.5-0.3-0.7-0.5c-0.2-0.2-0.3-0.5-0.3-0.8c0-0.1,0-0.3,0.1-0.4l-1.6-0.5l1.6,0.6l0,0l-1.6-0.6
			l1.6,0.6c0.4-0.9,0.5-1.9,0.5-3c0-4.6-3.7-8.3-8.3-8.3c-4.6,0-8.3,3.7-8.3,8.3c0,4.6,3.7,8.3,8.3,8.3c0.3,0,0.7,0,1-0.1
			c0.9-0.1,1.6-0.9,1.5-1.9C35.2,89.9,34.4,89.3,33.5,89.4L33.5,89.4z"/>
	</g>
	<path id="XMLID_1_" class="st38" d="M34.6,87.9l-0.8-3.8c0.5-0.3,0.8-0.8,0.8-1.4c0-0.9-0.7-1.6-1.6-1.6c-0.9,0-1.6,0.7-1.6,1.6
		c0,0.6,0.3,1.1,0.8,1.4l-0.8,3.8H34.6z"/>
</g>
</svg>
